<svg xmlns="http://www.w3.org/2000/svg" viewBox="0 0 24 24" width="24" height="24" fill="none" stroke="#409eff" stroke-width="2" stroke-linecap="round" stroke-linejoin="round">
  <circle cx="12" cy="12" r="10" />
  <path d="M8,9 C8,7.5 9,7 10,7 C11,7 12,7.5 12,9" />
  <path d="M12,9 C12,7.5 13,7 14,7 C15,7 16,7.5 16,9" />
  <path d="M8,15 C8.5,15.5 10,16 12,16 C14,16 15.5,15.5 16,15" />
  <path d="M7,11 C7.5,11 8,11.5 8,12 C8,12.5 7.5,13 7,13 C6.5,13 6,12.5 6,12 C6,11.5 6.5,11 7,11" />
  <path d="M17,11 C17.5,11 18,11.5 18,12 C18,12.5 17.5,13 17,13 C16.5,13 16,12.5 16,12 C16,11.5 16.5,11 17,11" />
</svg> 